<svg width="17" height="17" viewBox="0 0 17 17" fill="none" xmlns="http://www.w3.org/2000/svg">
<path d="M15.0589 8.33146C15.0589 7.75591 15.0112 7.33591 14.9081 6.90036H8.20175V9.49811H12.1382C12.0589 10.1437 11.6303 11.1159 10.6779 11.7692L10.6646 11.8562L12.785 13.466L12.9319 13.4804C14.2811 12.2592 15.0589 10.4626 15.0589 8.33146Z" fill="#4285F4"/>
<path d="M8.20132 15.176C10.1299 15.176 11.7489 14.5537 12.9315 13.4804L10.6775 11.7693C10.0743 12.1815 9.26478 12.4693 8.20132 12.4693C6.31245 12.4693 4.70929 11.2482 4.13781 9.56039L4.05405 9.56736L1.84921 11.2396L1.82037 11.3182C2.99496 13.6048 5.40765 15.176 8.20132 15.176Z" fill="#34A853"/>
<path d="M4.13823 9.56043C3.98744 9.12488 3.90017 8.65818 3.90017 8.17598C3.90017 7.69373 3.98744 7.22708 4.1303 6.79153L4.1263 6.69877L1.89383 4.99968L1.82078 5.03373C1.33668 5.98263 1.0589 7.0482 1.0589 8.17598C1.0589 9.30375 1.33668 10.3693 1.82078 11.3182L4.13823 9.56043Z" fill="#FBBC05"/>
<path d="M8.20135 3.88264C9.54261 3.88264 10.4474 4.45042 10.9632 4.92489L12.9791 2.99599C11.7411 1.86822 10.1299 1.17599 8.20135 1.17599C5.40767 1.17599 2.99497 2.74709 1.82037 5.03374L4.12989 6.79154C4.70931 5.10377 6.31247 3.88264 8.20135 3.88264Z" fill="#EB4335"/>
</svg>
