<svg width="17" height="16" viewBox="0 0 17 16" fill="none" xmlns="http://www.w3.org/2000/svg">
<path d="M15.5007 8.15546C15.5007 7.57991 15.453 7.15991 15.3499 6.72437H8.64355V9.32211H12.58C12.5007 9.96769 12.0721 10.9399 11.1197 11.5932L11.1064 11.6802L13.2268 13.29L13.3737 13.3044C14.7229 12.0832 15.5007 10.2866 15.5007 8.15546Z" fill="#4285F4"/>
<path d="M8.64315 15C10.5717 15 12.1907 14.3777 13.3733 13.3044L11.1193 11.5933C10.5162 12.0055 9.70662 12.2933 8.64315 12.2933C6.75428 12.2933 5.15113 11.0722 4.57965 9.38439L4.49588 9.39136L2.29104 11.0636L2.26221 11.1422C3.43679 13.4288 5.84949 15 8.64315 15Z" fill="#34A853"/>
<path d="M4.58006 9.38443C4.42927 8.94888 4.34201 8.48218 4.34201 7.99998C4.34201 7.51773 4.42927 7.05108 4.57213 6.61553L4.56814 6.52277L2.33566 4.82368L2.26262 4.85773C1.77851 5.80663 1.50073 6.87221 1.50073 7.99998C1.50073 9.12776 1.77851 10.1933 2.26262 11.1422L4.58006 9.38443Z" fill="#FBBC05"/>
<path d="M8.64319 3.70665C9.98444 3.70665 10.8892 4.27442 11.4051 4.7489L13.4209 2.82C12.1829 1.69222 10.5717 1 8.64319 1C5.84951 1 3.4368 2.5711 2.26221 4.85775L4.57173 6.61555C5.15114 4.92777 6.75431 3.70665 8.64319 3.70665Z" fill="#EB4335"/>
</svg>
