<svg width="77" height="25" viewBox="0 0 77 25" fill="none" xmlns="http://www.w3.org/2000/svg">
<path d="M9.72042 25C8.18162 25 6.75119 24.7182 5.42913 24.1547C4.12874 23.5912 3.00173 22.811 2.04811 21.814C1.11617 20.7954 0.433463 19.6142 0 18.2705L3.6736 16.6775C4.25878 18.0646 5.10403 19.1591 6.20936 19.961C7.31469 20.7412 8.5609 21.1313 9.94798 21.1313C10.7282 21.1313 11.4001 21.0121 11.9636 20.7737C12.5488 20.5137 12.9931 20.1669 13.2965 19.7334C13.6216 19.3 13.7841 18.7798 13.7841 18.173C13.7841 17.4577 13.5674 16.8726 13.1339 16.4174C12.7221 15.9406 12.0936 15.5722 11.2484 15.3121L6.59948 13.8166C4.71391 13.2315 3.29432 12.3537 2.3407 11.1834C1.38708 10.013 0.910273 8.63676 0.910273 7.05462C0.910273 5.66753 1.24621 4.443 1.91808 3.38101C2.61162 2.31903 3.56524 1.49545 4.77893 0.910272C6.0143 0.303424 7.42306 0 9.0052 0C10.4573 0 11.7902 0.260078 13.0039 0.780234C14.2176 1.27872 15.2579 1.98309 16.1248 2.89337C17.0134 3.78197 17.6745 4.83312 18.1079 6.04681L14.4668 7.6723C13.99 6.4586 13.2748 5.52666 12.3212 4.87646C11.3676 4.20459 10.2622 3.86866 9.0052 3.86866C8.26831 3.86866 7.61812 3.9987 7.05462 4.25878C6.49111 4.49718 6.04681 4.84395 5.72172 5.29909C5.41829 5.73255 5.26658 6.25271 5.26658 6.85956C5.26658 7.53143 5.48331 8.12744 5.91677 8.64759C6.35024 9.14608 7.01127 9.53619 7.89987 9.81794L12.3537 11.2159C14.2826 11.8444 15.7239 12.7113 16.6775 13.8166C17.6528 14.922 18.1404 16.2874 18.1404 17.9129C18.1404 19.3 17.7828 20.5245 17.0676 21.5865C16.3524 22.6485 15.3663 23.4829 14.1092 24.0897C12.8522 24.6966 11.3892 25 9.72042 25Z" fill="black"/>
<path d="M29.8264 24.8049C27.8325 24.8049 26.2829 24.2631 25.1775 23.1795C24.0939 22.0741 23.552 20.5245 23.552 18.5306V10.7282H20.4961V6.92458H20.8212C21.6882 6.92458 22.36 6.69701 22.8368 6.24187C23.3136 5.78674 23.552 5.1257 23.552 4.25878V2.89337H27.8108V6.92458H31.8745V10.7282H27.8108V18.303C27.8108 18.8882 27.9083 19.3866 28.1034 19.7984C28.3201 20.2102 28.6452 20.5245 29.0787 20.7412C29.5338 20.958 30.1082 21.0663 30.8017 21.0663C30.9534 21.0663 31.1268 21.0555 31.3219 21.0338C31.5386 21.0121 31.7445 20.9905 31.9396 20.9688V24.6099C31.6361 24.6532 31.2894 24.6966 30.8992 24.7399C30.5091 24.7833 30.1515 24.8049 29.8264 24.8049Z" fill="black"/>
<path d="M40.4939 25C39.2586 25 38.1857 24.7941 37.2755 24.3823C36.3652 23.9705 35.6608 23.3853 35.1623 22.6268C34.6639 21.8466 34.4146 20.9471 34.4146 19.9285C34.4146 18.9532 34.6313 18.0863 35.0648 17.3277C35.4983 16.5475 36.1701 15.8973 37.0804 15.3771C37.9907 14.857 39.1394 14.4885 40.5265 14.2718L46.3132 13.329V16.58L41.3392 17.4252C40.4939 17.5769 39.8654 17.8479 39.4536 18.238C39.0418 18.6281 38.8359 19.1374 38.8359 19.7659C38.8359 20.3728 39.0635 20.8604 39.5187 21.2289C39.9955 21.5756 40.5806 21.749 41.2742 21.749C42.1628 21.749 42.943 21.5648 43.6149 21.1964C44.3084 20.8062 44.8394 20.2752 45.2079 19.6034C45.598 18.9315 45.793 18.1946 45.793 17.3927V12.8414C45.793 12.0828 45.4896 11.4543 44.8828 10.9558C44.2976 10.4356 43.5173 10.1756 42.5421 10.1756C41.6318 10.1756 40.819 10.4248 40.1038 10.9233C39.4103 11.4001 38.901 12.0394 38.5759 12.8414L35.0973 11.1508C35.4441 10.2189 35.9859 9.41699 36.7228 8.74512C37.4814 8.05158 38.37 7.50975 39.3886 7.11963C40.4072 6.72952 41.5126 6.53446 42.7046 6.53446C44.1567 6.53446 45.4354 6.80537 46.5408 7.3472C47.6461 7.86736 48.5022 8.60425 49.109 9.55787C49.7375 10.4898 50.0518 11.5843 50.0518 12.8414V24.6099H46.0206V21.5865L46.9309 21.5215C46.4757 22.28 45.9339 22.9194 45.3054 23.4395C44.6769 23.938 43.9616 24.3281 43.1597 24.6099C42.3578 24.87 41.4692 25 40.4939 25Z" fill="black"/>
<path d="M53.988 24.6099V6.92458H57.9867V10.8583L57.6616 10.2731C58.0734 8.95102 58.7128 8.02991 59.5797 7.50975C60.4683 6.9896 61.5303 6.72952 62.7657 6.72952H63.806V10.5006H62.278C61.0643 10.5006 60.089 10.8799 59.3521 11.6385C58.6152 12.3754 58.2468 13.4157 58.2468 14.7594V24.6099H53.988Z" fill="black"/>
<path d="M74.6861 24.8049C72.6921 24.8049 71.1425 24.2631 70.0372 23.1795C68.9535 22.0741 68.4117 20.5245 68.4117 18.5306V10.7282H65.3558V6.92458H65.6809C66.5478 6.92458 67.2197 6.69701 67.6965 6.24187C68.1733 5.78674 68.4117 5.1257 68.4117 4.25878V2.89337H72.6705V6.92458H76.7342V10.7282H72.6705V18.303C72.6705 18.8882 72.768 19.3866 72.963 19.7984C73.1798 20.2102 73.5049 20.5245 73.9383 20.7412C74.3935 20.958 74.9678 21.0663 75.6614 21.0663C75.8131 21.0663 75.9865 21.0555 76.1815 21.0338C76.3982 21.0121 76.6041 20.9905 76.7992 20.9688V24.6099C76.4958 24.6532 76.149 24.6966 75.7589 24.7399C75.3688 24.7833 75.0112 24.8049 74.6861 24.8049Z" fill="black"/>
</svg>
