<svg width="39" height="25" viewBox="0 0 39 25" fill="none" xmlns="http://www.w3.org/2000/svg">
<path d="M7.46369 24.6099C6.09828 24.6099 4.90626 24.3065 3.88762 23.6996C2.89065 23.0928 2.12126 22.2475 1.57943 21.1638C1.05927 20.0802 0.799194 18.8123 0.799194 17.3602V6.53446H5.05797V17.0026C5.05797 17.7395 5.19885 18.3897 5.4806 18.9532C5.78402 19.495 6.20665 19.9285 6.74848 20.2536C7.31198 20.557 7.9405 20.7087 8.63404 20.7087C9.32759 20.7087 9.94527 20.557 10.4871 20.2536C11.0289 19.9285 11.4516 19.4842 11.755 18.9207C12.0584 18.3572 12.2101 17.6853 12.2101 16.9051V6.53446H16.4689V24.2198H12.4377V20.7412L12.7953 21.3589C12.3835 22.4426 11.7008 23.2553 10.7472 23.7971C9.81523 24.339 8.72074 24.6099 7.46369 24.6099Z" fill="#3B77D7"/>
<path d="M20.7853 24.2198V0H29.823C31.4702 0 32.9223 0.303424 34.1793 0.910274C35.4581 1.49545 36.455 2.36238 37.1702 3.51105C37.8855 4.63806 38.2431 6.0143 38.2431 7.63979C38.2431 9.24361 37.8746 10.6199 37.1377 11.7685C36.4225 12.8955 35.4364 13.7625 34.1793 14.3693C32.9223 14.9762 31.4702 15.2796 29.823 15.2796H25.2066V24.2198H20.7853ZM25.2066 11.3784H29.8881C30.69 11.3784 31.3835 11.2267 31.9687 10.9233C32.5539 10.5982 33.009 10.1539 33.3341 9.59038C33.6592 9.02687 33.8217 8.37668 33.8217 7.63979C33.8217 6.88123 33.6592 6.23104 33.3341 5.68921C33.009 5.1257 32.5539 4.69224 31.9687 4.38882C31.3835 4.06372 30.69 3.90117 29.8881 3.90117H25.2066V11.3784Z" fill="#3B77D7"/>
</svg>
